<svg width="195" height="48" viewBox="0 0 195 48" fill="none" xmlns="http://www.w3.org/2000/svg">
  <path d="M100.486 24.8606C99.3727 25.3981 97.9191 25.6668 96.1253 25.6668C93.7856 25.6668 91.9458 24.9809 90.6057 23.609C89.2657 22.237 88.5957 20.4089 88.5957 18.1247C88.5957 15.692 89.3473 13.719 90.8503 12.2056C92.3605 10.6922 94.3174 9.93555 96.7209 9.93555C98.2098 9.93555 99.4648 10.123 100.486 10.4978V13.7968C99.4648 13.1886 98.302 12.8845 96.9974 12.8845C95.5653 12.8845 94.4096 13.3336 93.5304 14.2317C92.6512 15.1298 92.2116 16.3462 92.2116 17.8807C92.2116 19.3517 92.6264 20.5256 93.456 21.4025C94.2855 22.2724 95.4022 22.7073 96.806 22.7073C98.146 22.7073 99.3727 22.382 100.486 21.7314V24.8606ZM115.939 25.4017H111.993L109.621 21.4874C109.444 21.1904 109.274 20.9252 109.111 20.6918C108.948 20.4584 108.781 20.2604 108.611 20.0978C108.448 19.9281 108.274 19.8007 108.09 19.7159C107.913 19.624 107.718 19.578 107.505 19.578H106.58V25.4017H103.145V10.1901H108.59C112.291 10.1901 114.141 11.5691 114.141 14.3272C114.141 14.8575 114.06 15.349 113.897 15.8016C113.734 16.2472 113.503 16.6503 113.205 17.0109C112.908 17.3716 112.546 17.6827 112.121 17.9444C111.702 18.206 111.234 18.4111 110.717 18.5596V18.6021C110.944 18.6728 111.163 18.7895 111.376 18.9521C111.589 19.1077 111.794 19.2916 111.993 19.5037C112.191 19.7159 112.379 19.9458 112.557 20.1932C112.741 20.4337 112.908 20.6706 113.056 20.904L115.939 25.4017ZM106.58 12.7572V16.9897H108.069C108.806 16.9897 109.398 16.7775 109.845 16.3532C110.298 15.9219 110.525 15.3879 110.525 14.7515C110.525 13.422 109.728 12.7572 108.132 12.7572H106.58ZM128.658 10.1901L123.692 19.9917V25.4017H120.256V20.0554L115.417 10.1901H119.342L121.799 15.8653C121.841 15.9714 121.958 16.3851 122.149 17.1064H122.192C122.284 16.5972 122.394 16.1977 122.522 15.9077L125.021 10.1901H128.658ZM129.477 24.8182V21.4237C130.094 21.94 130.764 22.3289 131.487 22.5906C132.21 22.8452 132.941 22.9725 133.678 22.9725C134.11 22.9725 134.486 22.9336 134.805 22.8558C135.131 22.778 135.401 22.672 135.614 22.5376C135.833 22.3961 135.996 22.2335 136.103 22.0496C136.209 21.8587 136.262 21.6536 136.262 21.4344C136.262 21.1373 136.177 20.8721 136.007 20.6388C135.837 20.4054 135.603 20.1897 135.305 19.9917C135.014 19.7937 134.667 19.6028 134.263 19.4189C133.859 19.235 133.423 19.0476 132.955 18.8567C131.764 18.3616 130.874 17.757 130.285 17.0427C129.704 16.3285 129.413 15.4657 129.413 14.4544C129.413 13.6624 129.573 12.9835 129.892 12.4178C130.211 11.8449 130.643 11.3747 131.189 11.0069C131.742 10.6392 132.381 10.3705 133.104 10.2007C133.827 10.0239 134.593 9.93555 135.401 9.93555C136.195 9.93555 136.897 9.98505 137.507 10.0841C138.123 10.176 138.691 10.321 139.208 10.519V13.6907C138.953 13.5139 138.673 13.3583 138.368 13.224C138.07 13.0896 137.762 12.98 137.443 12.8951C137.124 12.8032 136.805 12.736 136.486 12.6936C136.174 12.6511 135.876 12.6299 135.592 12.6299C135.202 12.6299 134.848 12.6688 134.529 12.7466C134.21 12.8173 133.94 12.9199 133.72 13.0542C133.501 13.1886 133.331 13.3512 133.21 13.5422C133.089 13.7261 133.029 13.9347 133.029 14.168C133.029 14.4226 133.097 14.6525 133.231 14.8575C133.366 15.0556 133.557 15.2465 133.806 15.4304C134.054 15.6072 134.355 15.784 134.71 15.9607C135.064 16.1305 135.465 16.3073 135.911 16.4911C136.521 16.7457 137.067 17.018 137.549 17.3079C138.038 17.5908 138.457 17.9126 138.804 18.2733C139.152 18.6339 139.417 19.0476 139.602 19.5144C139.786 19.974 139.878 20.5115 139.878 21.1267C139.878 21.9754 139.715 22.6896 139.389 23.2695C139.07 23.8423 138.634 24.3091 138.081 24.6697C137.528 25.0233 136.883 25.2779 136.145 25.4335C135.415 25.5891 134.642 25.6668 133.827 25.6668C132.99 25.6668 132.193 25.5961 131.434 25.4547C130.682 25.3132 130.03 25.1011 129.477 24.8182ZM153.098 12.98H148.748V25.4017H145.302V12.98H140.974V10.1901H153.098V12.98ZM167.029 25.4017H163.286L162.201 22.0178H156.777L155.703 25.4017H151.981L157.533 10.1901H161.606L167.029 25.4017ZM161.414 19.387L159.777 14.2741C159.656 13.8922 159.571 13.4361 159.521 12.9057H159.436C159.401 13.3512 159.312 13.7932 159.17 14.2317L157.511 19.387H161.414ZM178.016 25.4017H168.933V10.1901H172.368V22.6224H178.016V25.4017Z" fill="white"/>
  <path d="M163.177 31.9918V34.6171H161.905V44.4255H163.177V47.0508H157.209V44.4255H158.481V34.6171H157.209V31.9918H163.177ZM179.046 47.0508H175.59L169.325 37.589C168.958 37.0359 168.704 36.6194 168.562 36.3394H168.52C168.576 36.8714 168.605 37.6835 168.605 38.7757V47.0508H165.372V31.9918H169.061L175.092 41.1595C175.368 41.5726 175.622 41.9821 175.855 42.3882H175.898C175.841 42.0381 175.813 41.3486 175.813 40.3194V31.9918H179.046V47.0508ZM195 46.0426C193.515 46.8898 191.671 47.3133 189.466 47.3133C187.021 47.3133 185.092 46.6447 183.679 45.3075C182.272 43.9633 181.569 42.1151 181.569 39.7628C181.569 37.3965 182.339 35.4677 183.88 33.9765C185.42 32.4853 187.47 31.7397 190.028 31.7397C191.64 31.7397 193.06 31.9603 194.29 32.4013V35.5833C193.117 34.9112 191.682 34.5751 189.986 34.5751C188.565 34.5751 187.407 35.0337 186.508 35.9508C185.618 36.8609 185.173 38.0791 185.173 39.6053C185.173 41.1525 185.572 42.3497 186.371 43.1967C187.177 44.0439 188.261 44.4674 189.625 44.4674C190.445 44.4674 191.095 44.3519 191.576 44.1209V41.1805H188.533V38.4711H195V46.0426Z" fill="white"/>
  <path d="M100.447 46.5152C99.3373 47.0472 97.8888 47.3133 96.1005 47.3133C93.7685 47.3133 91.9351 46.6342 90.5995 45.2761C89.2639 43.9178 88.5957 42.1081 88.5957 39.8468C88.5957 37.4385 89.3447 35.4852 90.8433 33.987C92.3485 32.4888 94.2991 31.7397 96.6944 31.7397C98.1785 31.7397 99.4297 31.9253 100.447 32.2963V35.5623C99.4297 34.9602 98.2702 34.6591 96.9703 34.6591C95.5423 34.6591 94.3908 35.1037 93.5145 35.9928C92.6382 36.8819 92.2 38.0861 92.2 39.6053C92.2 41.0615 92.6134 42.2236 93.4403 43.0917C94.2671 43.9529 95.38 44.3834 96.7796 44.3834C98.1152 44.3834 99.3373 44.0614 100.447 43.4173V46.5152ZM112.15 47.0508H103.097V31.9918H106.521V44.2994H112.15V47.0508ZM123.323 47.0508H114.206V31.9918H122.973V34.7536H117.63V38.1036H122.602V40.8549H117.63V44.2994H123.323V47.0508ZM139.446 47.0508H135.715L134.633 43.7008H129.227L128.156 47.0508H124.446L129.98 31.9918H134.04L139.446 47.0508ZM133.849 41.0965L132.217 36.0348C132.096 35.6568 132.012 35.2052 131.962 34.6801H131.877C131.842 35.1212 131.754 35.5588 131.612 35.9928L129.958 41.0965H133.849ZM155.018 47.0508H151.562L145.298 37.589C144.93 37.0359 144.676 36.6194 144.534 36.3394H144.492C144.548 36.8714 144.577 37.6835 144.577 38.7757V47.0508H141.343V31.9918H145.033L151.065 41.1595C151.34 41.5726 151.594 41.9821 151.827 42.3882H151.87C151.814 42.0381 151.785 41.3486 151.785 40.3194V31.9918H155.018V47.0508Z" fill="#7ABCF5"/>
  <path fill-rule="evenodd" clip-rule="evenodd" d="M24.6059 13.0453C21.1503 12.4065 19.3577 11.8686 15.8465 13.1217C7.94485 15.9429 4.84096 25.2226 9.36721 32.2893C8.94451 33.2582 8.31509 33.6678 7.97262 35.1808C7.58077 36.9077 8.00039 37.571 8.30275 39.0198C5.55677 40.1843 3.56978 43.8797 3.44328 47.3703L17.4571 47.3642C17.4571 38.9801 21.2922 38.7294 21.2922 30.0397C21.2922 29.1472 22.4955 27.7687 22.6374 26.9159C22.9182 25.2379 22.19 24.8802 24.2264 24.7733C23.8469 24.6021 23.4982 24.6388 23.1403 24.4523C22.7948 24.272 22.7516 24.0214 22.2795 23.7616C20.817 22.9546 19.4502 24.1986 19.694 22.3586C19.9593 20.3443 22.1252 18.8772 24.248 18.5899L31.2857 18.5318L33.4794 18.92L33.4764 20.653L31.2857 21.0596C31.5542 24.3056 32.2885 24.7182 33.5504 26.4788C31.1747 26.216 30.2737 24.058 29.5795 21.8176C27.5679 21.9307 29.6937 22.8935 27.4198 24.4982C27.3149 24.5715 27.608 24.6846 26.8798 24.7183C27.4414 24.7947 27.5802 24.8558 27.9072 25.0545C28.4935 27.5333 27.3581 25.5343 28.984 27.9949C29.7523 29.1563 29.6505 29.5506 29.2062 30.978C28.5768 33.0015 28.0461 35.5781 29.0458 37.7269C29.7862 39.3163 30.7304 40.1049 31.6992 41.0707C33.609 42.9719 34.1829 44.6744 34.078 47.3581C57.1165 47.3489 42.4857 47.3519 54.7531 47.3581L50.1436 38.3382H50.1405C48.8292 38.9954 48.0208 38.2771 47.3204 38.2068C42.8436 40.3066 41.0355 37.9622 38.666 39.1512L36.1236 40.4258L34.9141 38.0601L60.9023 25.0239L62.1118 27.3897L59.5694 28.6642C57.1998 29.8532 58.036 32.6836 53.6763 35.0157C53.3153 35.6179 53.4264 36.6877 52.112 37.3448H52.109L57.2245 47.3519C61.6397 47.355 68.4985 47.3581 79.2449 47.3611C79.8588 47.3611 79.7354 46.7315 79.865 46.2271C81.2627 40.7895 79.3282 35.3428 74.9099 32.2954C72.9754 30.9628 72.2565 30.9475 69.8807 30.0825C69.529 25.7422 66.0672 24.9322 65.5612 24.4707C67.4525 18.382 65.0429 13.3968 61.4206 10.8905C60.458 10.2241 59.4707 9.68312 58.2643 9.28883C55.6602 8.43911 52.689 8.4819 50.0387 9.59448C48.604 10.1966 47.9653 10.7468 46.944 11.404C44.9324 10.3831 43.1521 9.46611 40.2981 10.6704C39.8106 10.4228 39.2152 9.82678 38.6166 9.44471C35.0777 7.17982 30.4866 7.28679 27.3334 9.78399C26.3676 10.5481 25.0409 11.783 24.6059 13.0331V13.0453ZM72.0282 23.7249C70.9514 23.7249 70.0782 24.5899 70.0782 25.6566C70.0782 26.7233 70.9514 27.5883 72.0282 27.5883C73.105 27.5883 73.9781 26.7233 73.9781 25.6566C73.9781 24.5899 73.105 23.7249 72.0282 23.7249ZM72.7285 24.3606C72.383 24.3606 72.1053 24.6388 72.1053 24.9781C72.1053 25.3204 72.3861 25.5955 72.7285 25.5955C73.0741 25.5955 73.3518 25.3173 73.3518 24.9781C73.3518 24.6357 73.071 24.3606 72.7285 24.3606ZM69.6339 20.0142C68.9397 20.0142 68.3782 20.5705 68.3782 21.2582C68.3782 21.946 68.9397 22.5023 69.6339 22.5023C70.3281 22.5023 70.8897 21.946 70.8897 21.2582C70.8897 20.5705 70.3281 20.0142 69.6339 20.0142ZM70.0844 20.4238C69.8622 20.4238 69.6802 20.6011 69.6802 20.8242C69.6802 21.0443 69.8591 21.2246 70.0844 21.2246C70.3065 21.2246 70.4886 21.0473 70.4886 20.8242C70.4886 20.6041 70.3096 20.4238 70.0844 20.4238ZM3.45254 35.8991C2.75833 35.8991 2.19679 36.4554 2.19679 37.1431C2.19679 37.8308 2.75833 38.3871 3.45254 38.3871C4.14675 38.3871 4.70829 37.8308 4.70829 37.1431C4.70829 36.4554 4.14675 35.8991 3.45254 35.8991ZM3.903 36.3087C3.68086 36.3087 3.49882 36.4859 3.49882 36.7091C3.49882 36.9291 3.67777 37.1095 3.903 37.1095C4.12515 37.1095 4.30719 36.9322 4.30719 36.7091C4.30719 36.489 4.12824 36.3087 3.903 36.3087ZM2.51458 28.4228C1.12616 28.4228 0 29.5384 0 30.9139C0 32.2893 1.12616 33.4049 2.51458 33.4049C3.903 33.4049 5.02917 32.2893 5.02917 30.9139C5.02917 29.5384 3.903 28.4228 2.51458 28.4228ZM3.4186 29.2419C2.9743 29.2419 2.61332 29.5995 2.61332 30.0397C2.61332 30.4798 2.9743 30.8374 3.4186 30.8374C3.86289 30.8374 4.22388 30.4798 4.22388 30.0397C4.22388 29.5995 3.86289 29.2419 3.4186 29.2419ZM21.3416 5.59041C22.9676 5.59041 24.285 6.89556 24.285 8.50635C24.285 10.1172 22.9676 11.4223 21.3416 11.4223C19.7156 11.4223 18.3981 10.1172 18.3981 8.50635C18.3981 6.89556 19.7156 5.59041 21.3416 5.59041ZM20.2833 6.55323C20.8047 6.55323 21.2274 6.97197 21.2274 7.48853C21.2274 8.00508 20.8047 8.42383 20.2833 8.42383C19.7619 8.42383 19.3392 8.00508 19.3392 7.48853C19.3392 6.97197 19.7619 6.55323 20.2833 6.55323ZM38.7678 0L39.0917 3.88181L43.0287 4.22108L39.1103 4.54202L38.7678 8.44217L38.4438 4.56036L34.5069 4.22108L38.4253 3.90015L38.7678 0ZM47.1693 4.66428L47.3636 6.97503L49.7085 7.17676L47.376 7.36932L47.1724 9.69229L46.978 7.38155L44.6331 7.17982L46.9656 6.98725L47.1693 4.66428ZM68.1313 31.9103C73.9534 32.5827 77.4615 36.4309 78.0416 41.8043C79.0937 36.1742 73.8485 31.464 68.1313 31.9103ZM53.1333 10.9516C58.4957 10.5298 62.3493 13.3754 63.8334 18.11C63.7655 12.8558 58.1964 9.54252 53.1333 10.9516ZM9.20677 27.9765C8.63906 20.8853 12.4711 15.7931 18.8517 13.8308C11.7738 13.9195 7.30926 21.2796 9.20677 27.9765ZM34.2138 36.6907L60.2019 23.6546L60.677 24.5838L34.6889 37.6199L34.2138 36.6907ZM40.292 12.6235L40.6715 17.1503L45.2625 17.5476L40.6931 17.9236L40.292 22.4717L39.9125 17.945L35.3214 17.5476L39.8909 17.1716L40.2889 12.6235H40.292ZM47.6845 18.5165L47.8789 20.8273L50.2238 21.029L47.8912 21.2216L47.6876 23.5445L47.4932 21.2338L45.1483 21.0321L47.4809 20.8395L47.6845 18.5165ZM36.6605 23.7188L36.8024 25.4213L38.5302 25.571L36.8117 25.7116L36.6605 27.4233L36.5185 25.7208L34.7907 25.571L36.5093 25.4304L36.6605 23.7188Z" fill="#7ABCF5"/>
  <path fill-rule="evenodd" clip-rule="evenodd" d="M60.203 23.6553L34.2148 36.6914L34.69 37.6206L60.6781 24.5845L60.203 23.6553Z" fill="white"/>
  <path fill-rule="evenodd" clip-rule="evenodd" d="M31.7641 20.9772L33.4826 20.6593L33.4857 18.9263L31.292 18.5381V21.0658L31.7641 20.9772Z" fill="white"/>
</svg>
