<svg width="175" height="80" viewBox="0 0 175 80" fill="none" xmlns="http://www.w3.org/2000/svg">
  <g clip-path="url(#clip0_65_3123)">
  <path fill-rule="evenodd" clip-rule="evenodd" d="M58.7481 59.7398H51.1681L51.1671 48.4628C51.1661 46.0948 49.7491 44.2308 47.4751 43.6008C45.0171 42.9188 42.2421 44.5168 41.6071 47.0048C41.4827 47.4966 41.4185 48.0016 41.4161 48.5088L41.4081 59.7368H33.8281L33.8291 48.3468C33.8259 45.6182 34.7171 42.9636 36.3662 40.7896C38.0153 38.6157 40.3315 37.0421 42.9601 36.3098C49.3301 34.5248 56.0081 38.0828 58.1021 44.3718C58.5277 45.6392 58.7458 46.967 58.7481 48.3038L58.7491 59.7408L58.7481 59.7398Z" fill="white"/>
  <path d="M100.069 30.4502L97.7694 33.5262H97.5064L95.2564 30.4402V35.5902H93.9264V28.5082H95.4604L97.6604 31.5532L99.8604 28.5082H101.383V35.6002H100.053V30.4602L100.069 30.4502ZM103.953 32.1002C103.983 33.2642 104.609 34.5082 106.273 34.5082C107.937 34.5082 108.573 33.2542 108.573 32.0902C108.593 30.8962 107.928 29.5602 106.273 29.5602C104.618 29.5602 103.923 30.9062 103.953 32.1002ZM109.895 32.0702C109.875 33.9002 108.755 35.7332 106.273 35.7332C103.791 35.7332 102.641 33.9332 102.641 32.0802C102.641 30.2272 103.841 28.3472 106.273 28.3472C108.703 28.3472 109.915 30.2192 109.895 32.0702ZM112.405 34.2952H113.857C115.461 34.2952 116.097 33.1222 116.057 31.9682C116.027 30.8652 115.381 29.7622 113.857 29.7622H112.405V34.2952ZM117.388 31.9782C117.418 33.7782 116.328 35.5802 113.858 35.5802H111.084V28.4972H113.858C116.278 28.4972 117.358 30.2272 117.388 31.9772V31.9782ZM123.834 35.5802H118.549V28.4972H123.834V29.7922H119.87V31.4222H123.693V32.6662H119.87V34.2662H123.834V35.5822V35.5802ZM126.498 29.7422V32.0082H128.525C129.372 32.0082 129.725 31.4412 129.725 30.8752C129.725 30.3092 129.352 29.7422 128.525 29.7422H126.498ZM131.42 35.5802H129.837L127.779 33.2132H126.499V35.5802H125.167V28.4882L128.527 28.4982C130.191 28.5082 131.069 29.6212 131.069 30.8462C131.069 31.8162 130.625 32.7992 129.284 33.0722L131.424 35.4902V35.5902H131.422L131.42 35.5802ZM136.918 28.4882H138.248V35.5802H137.421V35.5902L133.709 30.8052V35.5802H132.377V28.4982H133.457L136.917 32.8982V28.4982L136.918 28.4882ZM95.7424 41.8532H93.5024V40.6402H99.3024V41.8532H97.0624V47.7212H95.7324V41.8532H95.7424ZM105.689 47.7202H100.403V40.6402H105.689V41.9352H101.725V43.5652H105.548V44.8092H101.725V46.4092H105.689V47.7242V47.7202ZM113.244 46.8202C112.517 47.5382 111.58 47.8722 110.56 47.8722C107.938 47.8722 106.828 46.0722 106.818 44.2192C106.808 42.3692 108.018 40.4862 110.56 40.4862C111.52 40.4862 112.427 40.8502 113.153 41.5692L112.265 42.4292C111.801 41.9742 111.165 41.7612 110.56 41.7612C108.855 41.7612 108.12 43.0362 108.13 44.2192C108.14 45.3932 108.816 46.6172 110.56 46.6172C111.222 46.6123 111.857 46.3556 112.335 45.8992L113.235 46.8192L113.244 46.8202ZM119.104 47.7222V44.8582H115.634V47.7222H114.302V40.6502H115.634V43.6352H119.104V40.6502H120.426V47.7322H119.104V47.7222ZM126.619 40.6202H127.951V47.7122H127.124V47.7222L123.411 42.9362V47.7112H122.081V40.6312H123.161L126.621 45.0312V40.6312L126.619 40.6202ZM130.574 44.2402C130.604 45.4042 131.229 46.6482 132.894 46.6482C134.559 46.6482 135.194 45.3932 135.194 44.2302C135.214 43.0362 134.549 41.7002 132.894 41.7002C131.239 41.7002 130.544 43.0462 130.574 44.2402ZM136.514 44.2102C136.494 46.0402 135.374 47.8732 132.894 47.8732C130.414 47.8732 129.262 46.0732 129.262 44.2202C129.262 42.3672 130.462 40.4872 132.894 40.4872C135.324 40.4872 136.536 42.3582 136.514 44.2102ZM139.129 40.6302V46.4772H142.761V47.7112H137.799V40.6312L139.129 40.6302ZM144.787 44.2302C144.817 45.3942 145.443 46.6382 147.107 46.6382C148.771 46.6382 149.407 45.3832 149.407 44.2202C149.427 43.0262 148.762 41.6902 147.107 41.6902C145.452 41.6902 144.757 43.0362 144.787 44.2302ZM150.729 44.2002C150.709 46.0302 149.589 47.8632 147.107 47.8632C144.625 47.8632 143.477 46.0632 143.477 44.2102C143.477 42.3572 144.677 40.4772 147.107 40.4772C149.537 40.4772 150.749 42.3482 150.729 44.2002ZM157.255 42.3502C156.765 41.9002 156.125 41.6473 155.459 41.6402C153.946 41.6402 153.029 42.7932 153.029 44.2402C153.029 45.4042 153.705 46.6082 155.459 46.6082C156.043 46.6246 156.611 46.4224 157.053 46.0412V44.7862H155.248V43.5922H158.274V46.5772C157.934 46.9903 157.503 47.3199 157.015 47.5409C156.528 47.7619 155.996 47.8684 155.46 47.8522C152.807 47.8522 151.727 46.1022 151.727 44.2402C151.727 42.2472 152.967 40.4062 155.46 40.4062C156.443 40.4067 157.386 40.796 158.082 41.4892L157.255 42.3392V42.3502ZM159.675 40.6202H160.999V47.7022H159.677V40.6402L159.675 40.6202ZM167.815 47.7002H162.529V40.6202H167.815V41.9152H163.85V43.5452H167.673V44.7892H163.85V46.3892H167.815V47.7042V47.7002ZM173.717 42.3302C173.475 41.9252 172.809 41.5302 172.042 41.5302C171.054 41.5302 170.58 41.9452 170.58 42.4702C170.58 43.0872 171.307 43.2702 172.153 43.3702C173.626 43.5522 174.998 43.9372 174.998 45.6272C174.998 47.2052 173.606 47.8842 172.033 47.8842C170.59 47.8842 169.48 47.4392 168.956 46.1442L170.056 45.5682C170.368 46.3482 171.186 46.6912 172.043 46.6912C172.88 46.6912 173.666 46.3972 173.666 45.6282C173.666 44.9602 172.97 44.6882 172.032 44.5862C170.59 44.4142 169.258 44.0302 169.258 42.4412C169.258 40.9842 170.691 40.3872 171.991 40.3772C173.091 40.3772 174.231 40.6912 174.765 41.7832L173.707 42.3292L173.717 42.3302Z" fill="white"/>
  <path fill-rule="evenodd" clip-rule="evenodd" d="M42.4746 21.062V27.88H60.2666V59.738H67.5996V28.308C67.5996 27.868 67.5996 27.868 68.0236 27.868H84.0606L84.4176 27.881V21.061L42.4746 21.062Z" fill="white"/>
  <path fill-rule="evenodd" clip-rule="evenodd" d="M11.1133 21.062L20.5963 34.185L29.7463 21.062H11.1133Z" fill="white"/>
  <path fill-rule="evenodd" clip-rule="evenodd" d="M41.314 21.232L41.307 21.062H32.82C32.7932 21.0895 32.7685 21.1189 32.746 21.15L21.2 37.042L20.7 37.699L20.477 37.413L8.68 21.16C8.653 21.123 8.626 21.09 8.598 21.063H0V59.756H7.4V31.642L7.568 31.839L19.098 47.639C19.32 47.942 19.5 48.343 19.798 48.522H21.324C21.3684 48.4865 21.4077 48.4451 21.441 48.399L33.903 31.774L33.983 31.79V40.32C34.0647 40.2998 34.1365 40.2508 34.185 40.182C35.985 37.709 38.279 35.829 41.099 34.622C41.294 34.539 41.329 34.425 41.329 34.235L41.325 21.23L41.314 21.232ZM88.574 78.774C88.574 79.451 88.027 80.001 87.351 80.001C86.675 80.001 86.128 79.451 86.128 78.774V1.227C86.127 0.55 86.674 0 87.35 0C88.026 0 88.573 0.55 88.573 1.227L88.574 78.774Z" fill="white"/>
  </g>
  <defs>
  <clipPath id="clip0_65_3123">
  <rect width="175" height="80" fill="white"/>
  </clipPath>
  </defs>
</svg>
